<svg id="btn_help_active_help" xmlns="http://www.w3.org/2000/svg" width="58" height="52" viewBox="0 0 58 52">
  <rect id="Rechteck_3167_Kopie" data-name="Rechteck 3167 Kopie" width="58" height="52" fill="#f8f8f8"/>
  <path id="_" data-name="?" d="M638.43,282.122a7.321,7.321,0,0,1,1.885-2.033,19.665,19.665,0,0,0,3.83-3.863,5.539,5.539,0,0,0,.9-3.007,6.551,6.551,0,0,0-2.44-5.033,9.547,9.547,0,0,0-6.568-2.162,9.21,9.21,0,0,0-6.338,2.136,7.321,7.321,0,0,0-2.6,5.195l4.4.547a5.549,5.549,0,0,1,1.689-3.178,4.557,4.557,0,0,1,3.054-1.043,4.348,4.348,0,0,1,3.011,1,3.111,3.111,0,0,1,1.117,2.4,3,3,0,0,1-.631,1.846,20.973,20.973,0,0,1-2.508,2.238,10.638,10.638,0,0,0-2.8,3.077,7.634,7.634,0,0,0-.7,3.486c0,.137,0,.519.017,1.145h4.35a6.819,6.819,0,0,1,.332-2.751Zm.111,9.212v-4.8h-4.794v4.8Z" transform="translate(-607 -252)" fill="#95572b" fill-rule="evenodd"/>
</svg>
