<svg id="btn_feedback_active_help" xmlns="http://www.w3.org/2000/svg" width="58" height="52" viewBox="0 0 58 52">
  <rect id="Rechteck_3167_Kopie_2" data-name="Rechteck 3167 Kopie 2" width="58" height="52" fill="#f8f8f8"/>
  <path id="Form_3405" data-name="Form 3405" d="M627,377h9l-9,10Z" transform="translate(-609 -343)" fill="#95572b" fill-rule="evenodd"/>
  <rect id="Rechteck_3404" data-name="Rechteck 3404" width="29" height="21" transform="translate(14 15)" fill="#95572b"/>
  <path id="star_Kopie_20" data-name="star Kopie 20" d="M628.506,365.005l1.167,1.854,2.332.434-1.583,1.538.25,2.13-2.166-.868-2.165.907.291-2.13-1.624-1.577,2.332-.434Z" transform="translate(-609 -343)" fill="#f8f8f8" fill-rule="evenodd"/>
  <path id="star_Kopie_21" data-name="star Kopie 21" d="M637.506,365.005l1.167,1.854,2.332.434-1.583,1.538.25,2.13-2.166-.868-2.165.907.291-2.13-1.624-1.577,2.332-.434Z" transform="translate(-609 -343)" fill="#f8f8f8" fill-rule="evenodd"/>
  <path id="star_Kopie_22" data-name="star Kopie 22" d="M646.506,365.005l1.167,1.854,2.332.434-1.583,1.538.25,2.13-2.166-.868-2.165.907.291-2.13-1.624-1.577,2.332-.434Z" transform="translate(-609 -343)" fill="#f8f8f8" fill-rule="evenodd"/>
</svg>
