<svg id="btn_reload_active_help" xmlns="http://www.w3.org/2000/svg" width="59" height="52" viewBox="0 0 59 52">
  <rect id="Rechteck_2954" data-name="Rechteck 2954" width="59" height="52" fill="#f8f8f8"/>
  <path id="Form_1495" data-name="Form 1495" d="M119.384,428.7l-2.131,3.39a12.25,12.25,0,0,0-3.263-7.024A11.626,11.626,0,1,0,105.728,445a11.9,11.9,0,0,0,4.963-1.07l-1.257-2.727a8.888,8.888,0,0,1-3.706.8,8.5,8.5,0,0,1,0-17,8.329,8.329,0,0,1,6.123,2.188,9.219,9.219,0,0,1,2.374,5.129l-1.945-3.538-2.651,1.438,4.678,8.5h2.34l5.3-8.429Z" transform="translate(-78 -407)" fill="#95572b" fill-rule="evenodd"/>
</svg>
