<svg id="over" xmlns="http://www.w3.org/2000/svg" width="58" height="53" viewBox="0 0 58 53">
  <defs>
    <style>
      .cls-1 {
        fill: #d9d9d6;
      }

      .cls-2 {
        fill: #95572b;
      }

      .cls-3, .cls-4 {
        fill: #fff;
      }

      .cls-4, .cls-5 {
        fill-rule: evenodd;
      }

      .cls-5 {
        fill: none;
        stroke: #fff;
        stroke-linecap: round;
        stroke-width: 3px;
      }
    </style>
  </defs>
  <rect id="trenner_Kopie_12" data-name="trenner Kopie 12" class="cls-1" y="52" width="58" height="1"/>
  <rect id="Rechteck_3081_Kopie" data-name="Rechteck 3081 Kopie" class="cls-2" width="58" height="52"/>
  <path id="Rechteck_896_Kopie" data-name="Rechteck 896 Kopie" class="cls-3" d="M16,22h4a0,0,0,0,1,0,0v9a0,0,0,0,1,0,0H16a2,2,0,0,1-2-2V24A2,2,0,0,1,16,22Z"/>
  <path id="Rechteck_897_Kopie" data-name="Rechteck 897 Kopie" class="cls-4" d="M1154.23,154l8.77-9v27l-8.77-9v-9Z" transform="translate(-1135 -132)"/>
  <path id="Form_3078" data-name="Form 3078" class="cls-5" d="M1169,154l8,11" transform="translate(-1135 -132)"/>
  <path id="Form_3078_Kopie" data-name="Form 3078 Kopie" class="cls-5" d="M1177,154l-8,11" transform="translate(-1135 -132)"/>
</svg>
