<svg id="active" xmlns="http://www.w3.org/2000/svg" width="58" height="52" viewBox="0 0 58 52">
  <rect id="Rechteck_1" data-name="Rechteck 1" width="58" height="52" fill="#f8f8f8"/>
  <path id="Pfad_2" data-name="Pfad 2" d="M40,15l-3.3,6.2a8.062,8.062,0,0,0-2.9-2.9Z" fill="#95572b"/>
  <path id="Pfad_3" data-name="Pfad 3" d="M24.2,33.7,18,37l3.3-6.2A10.017,10.017,0,0,0,24.2,33.7Z" fill="#95572b"/>
  <path id="Pfad_4" data-name="Pfad 4" d="M40,37l-6.2-3.3a8.062,8.062,0,0,0,2.9-2.9Z" fill="#95572b"/>
  <path id="Pfad_5" data-name="Pfad 5" d="M24.3,18.4a8.062,8.062,0,0,0-2.9,2.9L18,15Z" fill="#95572b"/>
  <path id="Pfad_6" data-name="Pfad 6" d="M34.5,23.8a5.943,5.943,0,0,0-3.3-3.3L29,13l-2.2,7.4a5.943,5.943,0,0,0-3.3,3.3L16,26l7.4,2.2a5.988,5.988,0,0,0,3.4,3.4L29,39l2.2-7.4a5.988,5.988,0,0,0,3.4-3.4L42,26Zm-2.7,3.3a2.857,2.857,0,0,1-1.7,1.7,2.8,2.8,0,0,1-2.2,0,2.857,2.857,0,0,1-1.7-1.7,3.125,3.125,0,0,1,0-2.2,2.7,2.7,0,0,1,1.7-1.6,2.915,2.915,0,0,1,3.8,1.6,4.253,4.253,0,0,1,.2,1.1A1.986,1.986,0,0,1,31.8,27.1Z" fill="#95572b"/>
</svg>
