<svg id="down" xmlns="http://www.w3.org/2000/svg" width="58" height="52" viewBox="0 0 58 52">
  <rect id="Rechteck_2" data-name="Rechteck 2" width="58" height="52" fill="#d9cebd"/>
  <path id="Pfad_7" data-name="Pfad 7" d="M40,15l-3.3,6.2a8.062,8.062,0,0,0-2.9-2.9Z" fill="#fff"/>
  <path id="Pfad_8" data-name="Pfad 8" d="M24.2,33.7,18,37l3.3-6.2A10.017,10.017,0,0,0,24.2,33.7Z" fill="#fff"/>
  <path id="Pfad_9" data-name="Pfad 9" d="M40,37l-6.2-3.3a8.062,8.062,0,0,0,2.9-2.9Z" fill="#fff"/>
  <path id="Pfad_10" data-name="Pfad 10" d="M24.3,18.4a8.062,8.062,0,0,0-2.9,2.9L18,15Z" fill="#fff"/>
  <path id="Pfad_11" data-name="Pfad 11" d="M34.5,23.8a5.943,5.943,0,0,0-3.3-3.3L29,13l-2.2,7.4a5.943,5.943,0,0,0-3.3,3.3L16,26l7.4,2.2a5.988,5.988,0,0,0,3.4,3.4L29,39l2.2-7.4a5.988,5.988,0,0,0,3.4-3.4L42,26Zm-2.7,3.3a2.857,2.857,0,0,1-1.7,1.7,2.8,2.8,0,0,1-2.2,0,2.857,2.857,0,0,1-1.7-1.7,3.125,3.125,0,0,1,0-2.2,2.7,2.7,0,0,1,1.7-1.6,2.915,2.915,0,0,1,3.8,1.6,4.253,4.253,0,0,1,.2,1.1A1.986,1.986,0,0,1,31.8,27.1Z" fill="#fff"/>
</svg>
