<svg id="Gruppe_227" data-name="Gruppe 227" xmlns="http://www.w3.org/2000/svg" width="64" height="41.969" viewBox="0 0 64 41.969">
  <path id="Pfad_193" data-name="Pfad 193" d="M40.269,5.908c-1.969.985-4.062,1.969-6.031,2.954h0l3.692,1.477c.738.246,1.723.615,1.969,1.6a2.564,2.564,0,0,1-.615,2.462c-.615,1.108-1.354,2.092-1.969,3.2-2.338,3.692-4.8,7.508-7.138,11.2V25.354h0c.862-2.831,1.846-5.785,2.708-8.738.246-.862.492-1.6.738-2.462a.775.775,0,0,0-.369-.985l-3.692-1.846-3.692,1.846c-.492.246-.615.492-.369.985.246.862.492,1.6.738,2.462.862,2.954,1.723,5.785,2.708,8.738h0V28.8c-2.462-3.692-4.8-7.508-7.138-11.2-.615-1.108-1.354-2.092-1.969-3.2a2.564,2.564,0,0,1-.615-2.462,3.6,3.6,0,0,1,1.969-1.6l3.692-1.477h0c-1.969-.985-4.062-1.969-6.031-2.954h0C19.469,7.015,20.085,8,20.7,9.108a32.053,32.053,0,0,0-3.077,1.231C15.408,6.892,13.192,3.446,11.1,0c6.277,2.215,12.431,4.431,18.708,6.523C35.592,4.431,41.746,2.215,48.023,0,45.808,3.446,43.715,6.892,41.5,10.338c-.985-.369-2.092-.862-3.077-1.231.492-1.108,1.231-2.092,1.846-3.2" transform="translate(2.562)" fill="#95572b"/>
  <path id="Pfad_194" data-name="Pfad 194" d="M32,35.131V29.1h9.846c.862,0,1.723.615,1.723,1.354v1.231a1.394,1.394,0,0,1-1.108,1.477l1.354,1.969H41.723l-1.108-1.846H34.092v1.846Zm1.846-4.8v1.477h7.631a.265.265,0,0,0,.246-.246V30.7a.265.265,0,0,0-.246-.246H33.846Z" transform="translate(7.385 6.715)" fill="#95572b"/>
  <path id="Pfad_195" data-name="Pfad 195" d="M11.569,35.154H1.723A1.658,1.658,0,0,1,0,33.554V30.6A1.658,1.658,0,0,1,1.723,29h9.846v1.6h-9.6a.265.265,0,0,0-.246.246v2.215a.265.265,0,0,0,.246.246h9.6v1.846Z" transform="translate(0 6.692)" fill="#95572b"/>
  <path id="Pfad_196" data-name="Pfad 196" d="M22.169,29.1v4.554a1.658,1.658,0,0,1-1.723,1.6H12.323a1.742,1.742,0,0,1-1.723-1.6V29.1h1.969v4.062a.265.265,0,0,0,.246.246h7.015a.265.265,0,0,0,.246-.246V29.1h2.092Z" transform="translate(2.446 6.715)" fill="#95572b"/>
  <path id="Pfad_197" data-name="Pfad 197" d="M52.323,31.808H44.446V30.7a.265.265,0,0,1,.246-.246H52.2v1.354Zm1.846,3.323V29.1H44.323A1.742,1.742,0,0,0,42.6,30.7v4.554h1.846V33.408h7.877v1.723Z" transform="translate(9.831 6.715)" fill="#95572b"/>
  <path id="Pfad_198" data-name="Pfad 198" d="M31.169,31.562a.265.265,0,0,1-.246.246H23.169V30.331h7.754a.265.265,0,0,1,.246.246Zm1.723.123V30.454c0-.862-.492-1.354-1.723-1.354H21.2v6.031h1.846V33.285h8c1.477,0,1.846-.738,1.846-1.6" transform="translate(4.892 6.715)" fill="#95572b"/>
</svg>
