<svg id="down" xmlns="http://www.w3.org/2000/svg" width="59" height="52" viewBox="0 0 59 52">
  <rect id="Rechteck_2954" data-name="Rechteck 2954" width="59" height="52" fill="#d9cebd"/>
  <path id="Form_1495" data-name="Form 1495" d="M1176.38,352.7l-2.13,3.39a12.241,12.241,0,0,0-3.26-7.024,11.626,11.626,0,1,0-8.26,19.93,11.9,11.9,0,0,0,4.96-1.07l-1.26-2.727a8.872,8.872,0,0,1-3.7.8,8.5,8.5,0,1,1,0-17,8.336,8.336,0,0,1,6.12,2.188,9.258,9.258,0,0,1,2.38,5.129l-1.95-3.538-2.65,1.438,4.68,8.5h2.34l5.3-8.429Z" transform="translate(-1135 -331)" fill="#f5f5f5" fill-rule="evenodd"/>
</svg>
