<svg id="active" xmlns="http://www.w3.org/2000/svg" width="58" height="53" viewBox="0 0 58 53">
  <defs>
    <style>
      .cls-1 {
        fill: #d9d9d6;
      }

      .cls-2 {
        fill: #f8f8f8;
      }

      .cls-3 {
        fill: #95572b;
        fill-rule: evenodd;
      }
    </style>
  </defs>
  <rect id="trenner_Kopie_33" data-name="trenner Kopie 33" class="cls-1" y="52" width="58" height="1"/>
  <rect id="Rechteck_3167_Kopie" data-name="Rechteck 3167 Kopie" class="cls-2" width="58" height="52"/>
  <path id="_" data-name="?" class="cls-3" d="M1166.43,374.122a7.251,7.251,0,0,1,1.88-2.033,19.347,19.347,0,0,0,3.83-3.863,5.519,5.519,0,0,0,.9-3.007,6.538,6.538,0,0,0-2.44-5.033,9.544,9.544,0,0,0-6.57-2.162,9.184,9.184,0,0,0-6.33,2.136,7.346,7.346,0,0,0-2.61,5.195l4.4,0.547a5.619,5.619,0,0,1,1.69-3.178,4.57,4.57,0,0,1,3.06-1.043,4.357,4.357,0,0,1,3.01,1,3.131,3.131,0,0,1,1.12,2.4,2.951,2.951,0,0,1-.64,1.846,20.285,20.285,0,0,1-2.5,2.238,10.679,10.679,0,0,0-2.8,3.077,7.583,7.583,0,0,0-.7,3.486c0,0.137.01,0.518,0.02,1.145h4.35A6.8,6.8,0,0,1,1166.43,374.122Zm0.11,9.212v-4.8h-4.79v4.8h4.79Z" transform="translate(-1135 -344)"/>
</svg>
